<?xml version="1.0" encoding="utf-8"?>
<!-- Generator: Adobe Illustrator 21.0.2, SVG Export Plug-In . SVG Version: 6.00 Build 0)  -->
<svg version="1.1" id="Layer_1" xmlns="http://www.w3.org/2000/svg" xmlns:xlink="http://www.w3.org/1999/xlink" x="0px" y="0px"
	 viewBox="0 0 334.4 328.6" style="enable-background:new 0 0 334.4 328.6;" xml:space="preserve">
<style type="text/css">
	.st0{fill:url(#SVGID_1_);}
	.st1{fill:url(#SVGID_2_);}
	.st2{fill:url(#SVGID_3_);}
	.st3{fill:url(#SVGID_4_);}
</style>
<g id="MARRIED">
	
		<linearGradient id="SVGID_1_" gradientUnits="userSpaceOnUse" x1="24.3" y1="183.35" x2="306.6003" y2="183.35" gradientTransform="matrix(1 0 0 -1 0 330)">
		<stop  offset="5.618000e-03" style="stop-color:#401617"/>
		<stop  offset="8.427000e-02" style="stop-color:#6C4D2E"/>
		<stop  offset="0.382" style="stop-color:#A68A55"/>
		<stop  offset="0.5618" style="stop-color:#E5D5B6"/>
		<stop  offset="0.7973" style="stop-color:#997B5A"/>
		<stop  offset="0.8034" style="stop-color:#967958"/>
		<stop  offset="0.9551" style="stop-color:#825030"/>
	</linearGradient>
	<path class="st0" d="M246.7,93.8h-52.1V95c14.7,0,16.2,4.1,16.2,15.4v31.8h-31.6v1.2c13.2,0,16.2,2.9,16.1,11.8
		c-0.2,4.4-1.4,11.6-4.6,19l-36.4-34.9c13.2-4.8,32.1-9.1,32.1-25.5c0-12.5-11.3-22.1-30.3-22.1c-19.7,0-34,10.6-34,25.6
		c0,10.8,7.4,20,13.2,25.5l2.9,2.9c-9,3.5-17.5,7.4-22.7,13.6l-29-66.2h-1.2l-29.9,71.5c-6,14.2-11.3,33.7-31.1,33.7v1.2h42.9v-1.2
		c-21.2,0-16.2-16.9-10.8-31.1l1.7-4.1h40.5l6,14c6.3,14.7,1,21.2-10.8,21.2v1.2h38.8c4.8,1.3,10.1,2.1,15.7,2.1
		c15.4,0,26.5-5.3,34.4-13l11.5,10.9h0.3h29.9h22.2c36.8,0,60-20.9,60-52.8C306.7,114.6,283.3,93.8,246.7,93.8z M58.8,161.3
		L78.1,115l19.7,46.3H58.8z M137.8,112.1c0-11.1,6.8-19.1,18-19.1c11.6,0,16.4,8.5,16.4,19.1c0,14.4-8.5,21.4-18.6,26.5L150,135
		C140.7,126.1,137.8,119.1,137.8,112.1z M153.7,199.3c-2.8,0-5.4-0.3-7.7-0.8v-0.2c-0.4,0-0.8,0-1.1,0
		c-13.9-3.7-17.7-16.2-17.7-26.5c0-13,5.1-20.5,12-25l42.4,40.7C175.2,194.1,166,199.3,153.7,199.3z M191.8,175.1
		c2.1-4.3,3.6-9.4,5.3-15.9c2.4-9,3.2-14.3,13.7-15.6v39.2c0,3.9-0.2,7-1.1,9.3c-1.5-1.3-3.1-2.8-4.9-4.5L191.8,175.1z M245.7,198.1
		h-17.8v-103h17.8c29.7,0,42.2,23.1,42.2,51.5S275.4,198.1,245.7,198.1z"/>
	
		<linearGradient id="SVGID_2_" gradientUnits="userSpaceOnUse" x1="0" y1="165.703" x2="334.4" y2="165.703" gradientTransform="matrix(1 0 0 -1 0 330)">
		<stop  offset="5.618000e-03" style="stop-color:#401617"/>
		<stop  offset="8.427000e-02" style="stop-color:#6C4D2E"/>
		<stop  offset="0.382" style="stop-color:#A68A55"/>
		<stop  offset="0.5618" style="stop-color:#E5D5B6"/>
		<stop  offset="0.7973" style="stop-color:#997B5A"/>
		<stop  offset="0.8034" style="stop-color:#967958"/>
		<stop  offset="0.9551" style="stop-color:#825030"/>
	</linearGradient>
	<path class="st1" d="M63.6,253.6c3-2.8,7-1.9,9.6,0.9c1.1,1.2,2,2.7,3.2,3.5l-2.7,3l-0.1-0.1c1.3-2.7,0.8-4.8-0.4-6.2
		c-2.1-2.2-5.1-1.1-7.6,1.2c-2.2,2.1-3.6,4.9-1.5,7.1c0.7,0.7,1.4,1.1,2.3,1.5l2.2-2.1c1.1-1,1.2-1.6,0.3-2.7l0.1-0.1l4.3,4.5
		l-0.1,0.1c-0.9-1-1.4-0.9-2.5,0.1l-2.3,2.2c-1.2-0.7-2.9-1.9-4.3-3.4C60.7,259.5,61.1,255.9,63.6,253.6z M72.3,270.9
		c1.1,0.9,1.6,0.7,2.5-0.4l5.1-6.2c1-1.1,1-1.7-0.1-2.5l0.1-0.1l8.1,6.8l-2.3,3.2h-0.1c1-2.1,1.1-4.1-1.2-6l-1.1-0.9l-3.7,4.5
		l0.4,0.3c1.7,1.4,3.2,1.1,4.6,0.1l0.1,0.1l-3.7,4.5l-0.1-0.1c0.8-1.5,0.8-3-0.9-4.4l-0.4-0.3l-3.7,4.5l1.2,1c2.4,2,4.6,1.1,6.3-0.1
		l0.1,0.1l-3,3L72.3,270.9L72.3,270.9z M87.2,282.5c1.1,0.7,1.8,0.8,2.8-0.7l5.3-8.2l-0.1-0.1c-2.3-1.5-4.1-0.3-5.9,1.2l-0.1-0.1
		l2.6-3.5l9.5,6.2l-2.1,3.8h-0.1c0.7-2.2,1-4.4-1.3-5.9l-0.1-0.1l-5.3,8.2c-0.9,1.4-0.6,2.1,0.5,2.8l-0.1,0.1L87.2,282.5L87.2,282.5
		z M101.9,291.3c1.2,0.6,1.9,0.5,2.7-1l4.3-8.8l-0.1-0.1c-2.4-1.2-4.1,0.2-5.7,1.9l-0.1-0.1l2.2-3.8l10.2,5l-1.6,4h-0.1
		c0.4-2.3,0.4-4.5-2-5.7l-0.1-0.1l-4.3,8.8c-0.7,1.5-0.4,2.1,0.8,2.7l-0.1,0.1l-6.1-3L101.9,291.3z M114.9,297.2
		c1.3,0.5,1.7,0.2,2.2-1.2l2.8-7.5c0.5-1.4,0.4-1.9-0.9-2.4V286l5.9,2.2v0.1c-1.3-0.5-1.7-0.2-2.2,1.2l-2.8,7.5
		c-0.5,1.4-0.4,1.9,0.9,2.4v0.1l-5.9-2.2V297.2z M125.3,301c2.2,0.6,2.7-0.5,3.7-4.5l0.9-3.4c0.5-1.9,0.3-3-1.5-3.5v-0.1l4.1,1.1
		l4.8,9.1l0.6-2.2c1-4,1.1-5.2-1.1-5.8v-0.1l5,1.3v0.1c-2.2-0.6-2.7,0.5-3.7,4.5l-1.7,6.6h-0.1l-6.1-11.5l-1,3.9
		c-1,4-1.1,5.2,1.1,5.8v0.1l-5-1.3V301z M143.7,299.5c0.5-4,4.2-6,8-5.5c1.6,0.2,3.3,0.8,4.8,0.6l-0.1,4h-0.1
		c-0.7-2.9-2.5-4.2-4.3-4.5c-3-0.4-4.6,2.5-5.1,5.8c-0.4,3,0.3,6.1,3.4,6.4c1,0.1,1.8,0,2.7-0.4l0.4-3c0.2-1.5-0.1-2.1-1.5-2.2v-0.1
		l6.2,0.8v0.1c-1.3-0.2-1.7,0.2-1.8,1.7l-0.4,3.1c-1.4,0.2-3.4,0.4-5.5,0.2C145.3,305.9,143.3,302.9,143.7,299.5z M169.1,307.5
		c2.1-0.2,2.6-1.2,2.5-5.7v-3c0-2.2-0.6-3.3-2.6-3.1v-0.1l4.9-0.4l4.6,7.8l2.8-8.4l4.1-0.3v0.1c-1.5,0.1-1.6,1.1-1.5,2.6l0.9,7
		c0.2,1.6,0.6,2.4,2,2.3v0.1l-6.4,0.5v-0.1c1.4-0.1,1.7-0.9,1.5-2.4l-1.1-7.9l-3.5,10.4h-0.1l-5.6-9.4v4.4c0,4.6,0.5,5.5,2.5,5.3
		v0.1l-5.2,0.4L169.1,307.5z M191.6,305.2c2-0.5,2.3-2.7,2.7-4.8l1.6-8.6h0.1l6.5,8.3c0.8,1.1,1.9,2.2,3.1,1.9v0.1l-6.7,1.6v-0.1
		c1.4-0.3,1.4-1.5,0.5-2.7l-0.9-1.2l-4,0.9l-0.1,0.4c-0.2,2,0.3,3.6,2.4,3.1v0.1l-5.2,1.2L191.6,305.2z M198.3,299.5l-3-3.9
		l-0.9,4.8L198.3,299.5z M210.1,300.6c1.3-0.5,1.4-1,0.9-2.4l-2.8-7.5c-0.5-1.4-0.9-1.7-2.2-1.2v-0.1l6.1-2.3
		c3.5-1.3,5.5-0.7,6.2,1.1c0.9,2.4-1.6,3.8-3.7,4.6v0.1c4.2-1.5,4.1-0.3,5.9,2c0.8,1,1.3,1.3,2.4,0.9v0.1l-4,1.5
		c-0.4-0.4-0.9-0.9-1.5-1.8c-1.6-2.4-1.9-3.1-3.8-2.4l-1.1,0.4l1.3,3.5c0.5,1.4,0.9,1.7,2.2,1.2v0.1L210.1,300.6L210.1,300.6z
		 M213.8,293.1c1.9-0.7,2.1-2.4,1.6-3.8c-0.6-1.5-1.8-2.6-3.8-1.8l-1.3,0.5l2.1,5.7L213.8,293.1z M227.3,293.8
		c1.2-0.6,1.3-1.2,0.6-2.5l-3.7-7.1c-0.7-1.3-1.1-1.6-2.4-0.9l-0.1-0.1l5.7-3c3.3-1.7,5.4-1.4,6.3,0.3c1.2,2.3-1.1,3.9-3.1,5.1v0.1
		c4-2,4-0.8,6.1,1.3c0.9,0.9,1.4,1.2,2.5,0.6l0.1,0.1l-3.8,2c-0.5-0.3-1-0.8-1.7-1.6c-1.9-2.2-2.2-2.9-4.1-1.9l-1.1,0.6l1.7,3.3
		c0.7,1.3,1.1,1.6,2.4,0.9l0.1,0.1l-5.5,2.9V293.8z M230,285.9c1.8-1,1.8-2.6,1.1-4s-2.1-2.3-4-1.3l-1.2,0.6l2.8,5.4L230,285.9z
		 M243.3,284.8c1.1-0.8,1.1-1.3,0.3-2.5l-4.5-6.7c-0.8-1.2-1.3-1.4-2.5-0.7l-0.1-0.1l5.2-3.5l0.1,0.1c-1.1,0.8-1.1,1.3-0.3,2.5
		l4.5,6.7c0.8,1.2,1.3,1.4,2.5,0.7l0.1,0.1L243.3,284.8L243.3,284.8z M252.5,278.5c1.1-0.9,1-1.4,0.1-2.5l-5.1-6.2
		c-0.9-1.1-1.4-1.3-2.5-0.4l-0.1-0.1l8.1-6.7l2.7,2.9v0.1c-1.8-1.4-3.8-1.8-6.1,0.1l-1.1,0.9l3.7,4.5l0.4-0.3c1.7-1.4,1.7-3,0.9-4.5
		l0.1-0.1l3.7,4.5l-0.1,0.1c-1.3-1-2.8-1.3-4.5,0.1l-0.4,0.3l3.7,4.5l1.2-1c2.4-2,1.9-4.3,1.1-6.2h0.1l2.4,3.5L252.5,278.5
		L252.5,278.5z M265,267.9c0.9-1,0.8-1.5-0.3-2.5l-5.8-5.5c-1.1-1-1.6-1.1-2.5-0.1l-0.1-0.1l4.5-4.8c3-3.2,6.6-3.6,9.3-1
		c2.7,2.6,2.6,6.1-0.5,9.3L265,267.9L265,267.9z M269.2,263.4c2.2-2.4,0.9-5.2-1.3-7.2c-2.2-2.1-5.1-3.2-7.3-0.9l-1.1,1.2l8.6,8.1
		L269.2,263.4z M121.9,325.5c1.8-0.4,2.2-1.5,2.5-2.7l2.2-8.7c0.3-1.3,0.2-1.8-1.1-2.1v-0.1l5.6,1.4v0.1c-1.2-0.3-1.6,0-1.9,1.3
		l-2.1,8.2C126.7,325,124.2,325.6,121.9,325.5L121.9,325.5z M131.8,321l1-5.1c0.3-1.3,0.1-2-1.1-2.2v-0.1l5.6,1.1v0.1
		c-1.2-0.2-1.6,0.3-1.9,1.7l-1.1,5.7c-0.3,1.8,0.1,3.2,2.1,3.6c1.8,0.3,3.4-0.5,3.8-2.9l0.5-2.5c0.7-3.7,0.6-4.7-1.4-5.1v-0.1
		l4.7,0.9v0.1c-2-0.4-2.4,0.6-3.1,4.3l-0.5,2.5c-0.5,2.5-2.1,3.6-4.8,3.1C133.1,325.4,131.2,323.9,131.8,321z M142.5,326.8
		c2.1,0.2,2.4-0.8,2.8-4.6l0.3-3.2c0.2-1.8-0.2-2.8-1.9-3v-0.1l3.9,0.4l5.6,7.7l0.2-2c0.4-3.8,0.3-4.9-1.8-5.1v-0.1l4.7,0.5v0.1
		c-2.1-0.2-2.4,0.8-2.8,4.6l-0.7,6.2h-0.1l-7.1-9.7l-0.4,3.7c-0.4,3.8-0.3,4.9,1.8,5.1v0.1l-4.7-0.5L142.5,326.8z M156.4,328.1
		c1.3,0,1.5-0.3,1.6-1.7l0.2-7.4c0-1.4-0.2-1.8-1.5-1.8v-0.1l9.7,0.3l0.1,3.6h-0.1c-0.4-2.1-1.5-3.6-4.3-3.7h-1.3l-0.2,5.4h0.5
		c2.1,0.1,3-1,3.4-2.5h0.1l-0.2,5.3h-0.1c-0.3-1.5-1.1-2.6-3.2-2.7h-0.5l-0.2,5.4h1.4c2.9,0.1,3.9-1.8,4.5-3.6h0.1l-0.5,3.9
		l-9.8-0.3L156.4,328.1z M173.6,325.5c1.4-2,4.6-3.2,4.5-6.2c-0.1-1.3-0.8-2.3-2.2-2.2c-1.2,0.1-1.8,0.8-2.1,1.5
		c0.7,0.1,1.2,0.6,1.3,1.3c0,0.8-0.5,1.4-1.3,1.5c-0.8,0-1.4-0.6-1.5-1.4c-0.1-1.3,1.3-3,4.2-3.2c2.3-0.1,4.3,0.8,4.4,2.8
		c0.2,3.2-5.1,3.2-7.2,6.1c-0.2,0.3-0.4,0.6-0.5,1c0.3-0.8,1.1-1.4,2.5-1.5c1.5-0.1,2.6,0.5,3.9,0.4c1.1-0.1,1.7-0.6,1.6-1.6
		c0-0.2-0.1-0.4-0.1-0.7h0.1c0.1,0.5,0.3,1.1,0.3,1.8c0.1,1.5-0.3,3.1-1.9,3.2c-2.1,0.1-3.1-2.6-5-2.4c-1,0.1-1.5,0.9-1.4,1.9
		c0,0.3,0.1,0.5,0.2,0.8h-0.2C172.8,327.2,172.9,326.4,173.6,325.5z M183.2,322.2c-0.4-3.3,1-6,4-6.3c3-0.4,5.1,1.8,5.5,5.1
		c0.4,3.3-1,6-4,6.3C185.7,327.7,183.7,325.5,183.2,322.2z M190,321.4c-0.3-2.6-1.1-5.6-2.7-5.4c-1.7,0.2-1.6,3.3-1.3,5.9
		s1,5.6,2.7,5.4C190.4,327,190.3,323.9,190,321.4z M195.3,326.1c1.3-0.2,1.9-0.7,1.6-2.2l-1.2-6.7c-0.1-0.6-0.3-0.9-1-0.8l-1.2,0.2
		v-0.1c1.5-0.4,3-1,4.3-2.1h0.1l1.7,9.1c0.3,1.5,0.9,1.6,2.1,1.4v0.1l-6.2,1.2L195.3,326.1z M207.3,315.8c0.4-0.7,0.8-1.4,1-2.2
		h-0.1c-0.3,0.9-0.7,1.6-1.8,1.9c-1,0.2-2.4,0.1-3.6,0.4c-1.1,0.3-1.5,0.8-1.3,2.3h-0.2l-1-4.3h0.2l0.8,2.8l0,0
		c-0.2-1.6-0.3-3.1,1.1-3.4c1.7-0.4,3.2,1.5,4.8,1.2c1.1-0.3,1.2-1.5,1.1-2c0-0.2-0.1-0.2-0.1-0.3h0.2c0,0.1,0.1,0.2,0.1,0.3
		c0.3,1.2-0.3,2.4-0.6,3.7c-0.6,2.5-0.8,4.6-0.2,7.6l-2.6,0.6C204.6,321.3,206,318.6,207.3,315.8z M27.9,226.1l1.5,3.1l-2.6,2.8
		l2.8,5.6l3.8-0.4l1.5,3L18,241.7l-1.5-3L27.9,226.1z M24.9,234.1l-4.3,4.5l6.2-0.7L24.9,234.1z M24.5,217.5l-15.1,4.6L8,217.5
		l9.5-5.8l-11.1,0.4L5,207.5l15.1-4.6l0.9,2.8l-11.9,3.6l12.8-0.6l0.9,2.9l-11,6.6l11.9-3.6L24.5,217.5z M16.1,178.4l0.4,3.4
		l-3.4,1.8l0.8,6.2l3.7,0.8l0.4,3.3l-16.4-4l-0.4-3.3L16.1,178.4z M10.7,185l-5.5,2.9l6.1,1.3L10.7,185z M15.7,169.1L0,168.7
		l0.1-3.1l10.7-6.2l-10.5-0.2l0.1-3l15.7,0.4l-0.1,3.2l-10.4,6.1l10.3,0.2L15.7,169.1z M1.6,142.9l1-5.7c0.2-1.3,0.5-2.3,0.8-2.9
		c0.4-0.9,1-1.6,1.8-2.1s1.7-0.9,2.8-1c1.1-0.2,2.3-0.1,3.8,0.1c1.3,0.2,2.3,0.6,3.2,1.1c1.1,0.6,1.9,1.3,2.4,2.2
		c0.4,0.6,0.7,1.4,0.8,2.4c0.1,0.7,0,1.7-0.2,2.8l-1.1,5.9L1.6,142.9z M4.8,140.3l10.3,1.8l0.4-2.3c0.2-0.9,0.2-1.5,0.2-1.9
		c0-0.5-0.2-1-0.4-1.4s-0.7-0.8-1.3-1.1c-0.7-0.3-1.6-0.6-2.8-0.8s-2.1-0.3-2.8-0.2c-0.7,0.1-1.2,0.3-1.7,0.6
		c-0.4,0.3-0.8,0.8-1,1.3c-0.2,0.4-0.4,1.3-0.6,2.5L4.8,140.3z M26.7,109.4l-1.1,3.3l-3.8,0.1l-2.1,5.9l3,2.4l-1.1,3.2l-12.9-11
		l1.1-3.2L26.7,109.4z M18.9,112.9l-6.2,0.1l4.8,3.9L18.9,112.9z M37,88.7L23.9,80l2.6-4L37,79.6l-7.4-8.3l2.6-4L45.5,76l-1.6,2.5
		l-10.3-6.9l8.6,9.5l-1.7,2.5l-12-4.3l10.3,6.9L37,88.7z M52.3,67.7L40.5,57.4l2.1-2.4l11.8,10.4L52.3,67.7z M61.9,57.5L51.4,45.9
		l2.4-2.1l8.7,9.6l5.9-5.3l1.8,2L61.9,57.5z M78,43.9L69.2,31l2.6-1.8l7.3,10.7l6.5-4.4l1.5,2.2L78,43.9z M95.7,32.7l-6.9-14.2
		l10.5-5.1l1.2,2.4l-7.6,3.7l1.5,3.1l7.1-3.5l1.2,2.4L95.6,25l1.9,3.9l7.9-3.9l1.2,2.4L95.7,32.7z M116.1,23.6l-4.7-15l6.4-2
		c1.6-0.5,2.8-0.7,3.6-0.7c0.8,0,1.5,0.3,2.2,0.9s1.1,1.3,1.4,2.2c0.4,1.1,0.3,2.2-0.1,3.1s-1.3,1.7-2.5,2.3c0.8,0.2,1.4,0.4,2,0.8
		s1.4,1,2.5,1.9l2.8,2.4l-3.6,1.1l-3.2-2.6c-1.1-0.9-1.9-1.5-2.3-1.7s-0.8-0.3-1.1-0.3c-0.4,0-0.9,0.1-1.6,0.3l-0.6,0.2l2,6.3
		L116.1,23.6z M116.4,14l2.2-0.7c1.5-0.5,2.3-0.8,2.7-1c0.3-0.2,0.5-0.5,0.7-0.9s0.1-0.8,0-1.2c-0.2-0.5-0.4-0.9-0.8-1.1
		c-0.4-0.2-0.8-0.3-1.3-0.2c-0.3,0-1,0.3-2.2,0.6l-2.4,0.7L116.4,14z M151.7,12c-0.1-2.1,1.9-3.1,4.3-4l-0.6-0.5
		c-1.2-1.1-2.1-2.2-2.2-3.6c-0.1-2.3,2.2-3.7,5.3-3.9c3.2-0.1,4.9,1.1,5,2.8c0.1,2.2-2.9,2.9-4.5,3.5l5.1,4.5
		c0.3-0.9,0.5-1.6,0.5-2.2c0.1-1-0.1-1.7-2.4-1.6V6.8l5.5-0.3v0.2c-2.2,0.1-2.3,0.8-2.8,2.3c-0.2,0.7-0.4,1.3-0.6,1.8l2.5,2.1
		c1.2,1.1,1.8,1.4,2.8,1.4v0.2l-5.8,0.3l-1.3-1.2c-1.1,1-2.5,1.6-4.7,1.7C154.3,15.6,151.8,14.3,151.7,12z M162.4,13.6l-6.3-5.5
		c-0.6,0.6-1.2,1.7-1.1,3.3c0.1,2.3,1.5,3.8,4,3.7C160.4,15,161.5,14.4,162.4,13.6z M156.4,2.7c0,1.1,0.6,1.8,1.9,3l0.7,0.6
		c1-0.7,1.9-1.8,1.8-3.5c-0.1-1.3-0.7-2.6-2.3-2.5C157.1,0.2,156.4,1.3,156.4,2.7z M196.6,1.6l5.7,1.2c1.3,0.3,2.2,0.6,2.9,0.9
		c0.8,0.5,1.5,1.1,2,1.9s0.8,1.8,0.9,2.8c0.1,1.1,0,2.3-0.3,3.7c-0.3,1.3-0.7,2.3-1.2,3.2c-0.6,1-1.4,1.8-2.2,2.4
		c-0.7,0.4-1.5,0.7-2.5,0.8c-0.7,0.1-1.7,0-2.8-0.3l-5.8-1.3L196.6,1.6z M199.1,4.9l-2.2,10.2l2.3,0.5c0.9,0.2,1.5,0.3,1.9,0.3
		c0.5,0,1-0.1,1.4-0.4c0.4-0.2,0.8-0.7,1.1-1.3c0.4-0.6,0.7-1.6,0.9-2.8c0.3-1.2,0.4-2.1,0.3-2.8c-0.1-0.7-0.3-1.2-0.6-1.7
		c-0.3-0.4-0.7-0.8-1.3-1c-0.4-0.2-1.3-0.4-2.5-0.7L199.1,4.9z M229.2,27.9l-3.2-1.2v-3.8l-5.9-2.3l-2.5,2.9l-3.1-1.2l11.4-12.5
		L229,11L229.2,27.9z M226,20l0.1-6.2l-4.1,4.7L226,20z M237.6,32l7.9-13.6l2.7,1.5l0.3,12.3l5.3-9.1l2.6,1.5l-7.9,13.6l-2.8-1.6
		l-0.3-12.1l-5.1,8.9L237.6,32z M268.2,53.3l11-11.3l2.3,2.2l-4.3,4.4l4.5,4.3l4.3-4.4l2.3,2.2l-11,11.3l-2.3-2.2l4.8-4.9l-4.5-4.3
		l-4.8,4.9L268.2,53.3z M284.5,70.2l12.5-9.5l7.1,9.3l-2.1,1.6l-5.1-6.8L294,67l4.8,6.3l-2.1,1.6l-4.8-6.3l-3.4,2.6l5.3,7l-2.1,1.6
		L284.5,70.2z M297.3,88.3l13.9-7.4l2.2,4.2l-8.1,7.6l10.8-2.6l2.2,4.2l-13.9,7.4l-1.4-2.6l10.9-5.8l-12.4,3.1l-1.4-2.7l9.5-8.6
		L298.7,91L297.3,88.3z M323.6,106.6l2,6c0.4,1.2,0.6,2.1,0.7,2.7s0.1,1.2-0.1,1.8c-0.2,0.6-0.4,1.1-0.9,1.6c-0.4,0.5-0.9,0.8-1.6,1
		s-1.4,0.3-2.1,0.1c-0.7-0.2-1.3-0.5-1.8-1.1c0,1-0.2,1.8-0.6,2.6s-1.1,1.2-2,1.5c-0.7,0.2-1.4,0.3-2.1,0.2c-0.7-0.1-1.4-0.4-2-0.8
		s-1-1-1.4-1.8c-0.2-0.5-0.7-1.7-1.3-3.6l-1.7-5.1L323.6,106.6z M316.2,112.5l-4,1.4l0.9,2.8c0.4,1.1,0.6,1.8,0.8,2
		c0.2,0.4,0.6,0.7,1,0.9c0.4,0.2,0.9,0.2,1.4,0c0.4-0.2,0.8-0.4,1-0.7c0.2-0.3,0.4-0.7,0.4-1.2s-0.2-1.4-0.7-2.7L316.2,112.5z
		 M322.1,110.4l-3.4,1.2l0.7,2c0.4,1.2,0.7,1.9,0.8,2.2c0.2,0.5,0.6,0.8,0.9,1c0.4,0.2,0.8,0.2,1.3,0s0.8-0.4,1-0.8s0.2-0.8,0.1-1.3
		c-0.1-0.3-0.3-1.2-0.8-2.6L322.1,110.4z M315.4,134.1l15.5-2.7l2,11.5l-2.6,0.5l-1.5-8.4l-3.4,0.6l1.4,7.8l-2.6,0.5l-1.4-7.8
		l-4.2,0.7l1.5,8.7l-2.6,0.5L315.4,134.1z M318.5,156.2l15.7-0.5l0.2,6.7c0,1.7-0.1,2.9-0.3,3.7c-0.3,0.8-0.7,1.4-1.5,1.9
		c-0.7,0.5-1.5,0.7-2.5,0.8c-1.2,0-2.2-0.3-3-1s-1.3-1.7-1.5-3.1c-0.4,0.7-0.8,1.3-1.3,1.7c-0.5,0.5-1.3,1.1-2.5,1.9l-3,2l-0.1-3.8
		l3.4-2.4c1.2-0.9,2-1.4,2.3-1.7s0.5-0.6,0.6-1c0.1-0.3,0.2-0.9,0.1-1.6v-0.6l-6.6,0.2L318.5,156.2z M327.6,159.1l0.1,2.4
		c0,1.5,0.1,2.5,0.3,2.8c0.1,0.4,0.4,0.7,0.7,0.9c0.3,0.2,0.7,0.3,1.2,0.3s1-0.2,1.3-0.5s0.5-0.7,0.6-1.2c0-0.3,0-1,0-2.3l-0.1-2.5
		L327.6,159.1z M323.1,187.6l2.6,0.4l-0.9,6.8l-6.2-0.8c-0.6-0.7-1-1.8-1.3-3.1s-0.4-2.6-0.2-3.9c0.2-1.6,0.8-3,1.6-4.1
		c0.8-1.1,1.9-1.9,3.3-2.3c1.4-0.4,2.8-0.6,4.3-0.4c1.6,0.2,3,0.8,4.2,1.6s2,2,2.5,3.4c0.4,1.1,0.5,2.4,0.3,3.8
		c-0.3,1.9-0.9,3.4-1.8,4.4c-1,1-2.2,1.5-3.6,1.7l-0.2-3.2c0.8-0.1,1.5-0.5,2-1s0.8-1.3,1-2.2c0.2-1.4-0.1-2.5-0.9-3.5
		c-0.8-0.9-2-1.5-3.7-1.7c-1.9-0.2-3.3,0-4.3,0.7s-1.6,1.7-1.8,3.1c-0.1,0.7,0,1.3,0.1,2c0.2,0.7,0.4,1.3,0.7,1.8l2,0.3L323.1,187.6
		z M314.1,203.9l15.1,4.5l-3.3,11.2l-2.6-0.8l2.4-8.1l-3.3-1l-2.2,7.6l-2.5-0.8l2.2-7.6l-4.1-1.2l-2.5,8.4l-2.5-0.8L314.1,203.9z
		 M307,225l14.2,6.7l-2.9,6.1c-0.7,1.5-1.4,2.6-1.9,3.1c-0.6,0.6-1.3,0.9-2.1,1c-0.8,0.1-1.7,0-2.5-0.4c-1.1-0.5-1.8-1.2-2.2-2.2
		c-0.4-1-0.4-2.1,0-3.4c-0.7,0.5-1.3,0.8-1.9,1s-1.7,0.4-3.1,0.5l-3.6,0.4l1.6-3.4l4.1-0.6c1.5-0.2,2.4-0.4,2.8-0.5s0.8-0.3,1-0.6
		s0.5-0.7,0.8-1.4l0.3-0.6l-5.9-2.8L307,225z M313.9,231.8l-1,2.1c-0.7,1.4-1,2.3-1,2.7s0,0.8,0.2,1.1s0.5,0.6,0.9,0.8
		c0.5,0.2,0.9,0.3,1.3,0.2s0.8-0.4,1.1-0.8c0.1-0.2,0.5-0.9,1-2.1l1.1-2.2L313.9,231.8z"/>
</g>
<g id="Layer_2">
	
		<linearGradient id="SVGID_3_" gradientUnits="userSpaceOnUse" x1="215.2" y1="48.2" x2="302.3" y2="48.2" gradientTransform="matrix(1 0 0 -1 0 330)">
		<stop  offset="5.618000e-03" style="stop-color:#401617"/>
		<stop  offset="8.427000e-02" style="stop-color:#6C4D2E"/>
		<stop  offset="0.382" style="stop-color:#A68A55"/>
		<stop  offset="0.5618" style="stop-color:#E5D5B6"/>
		<stop  offset="0.7973" style="stop-color:#997B5A"/>
		<stop  offset="0.8034" style="stop-color:#967958"/>
		<stop  offset="0.9551" style="stop-color:#825030"/>
	</linearGradient>
	<path class="st2" d="M301.4,247.7c0.3,0.1,0.6,0.3,0.9,0.4c-19.8,31.9-50.5,56.2-86.9,67.8c-0.1-0.3-0.2-0.6-0.2-1
		C251.3,303.4,281.8,279.3,301.4,247.7z"/>
	
		<linearGradient id="SVGID_4_" gradientUnits="userSpaceOnUse" x1="32.2" y1="48.2" x2="119.3" y2="48.2" gradientTransform="matrix(1 0 0 -1 0 330)">
		<stop  offset="5.618000e-03" style="stop-color:#401617"/>
		<stop  offset="8.427000e-02" style="stop-color:#6C4D2E"/>
		<stop  offset="0.382" style="stop-color:#A68A55"/>
		<stop  offset="0.5618" style="stop-color:#E5D5B6"/>
		<stop  offset="0.7973" style="stop-color:#997B5A"/>
		<stop  offset="0.8034" style="stop-color:#967958"/>
		<stop  offset="0.9551" style="stop-color:#825030"/>
	</linearGradient>
	<path class="st3" d="M33.1,247.7c-0.3,0.1-0.6,0.3-0.9,0.4c19.8,31.9,50.5,56.2,86.9,67.8c0.1-0.3,0.2-0.6,0.2-1
		C83.3,303.4,52.8,279.3,33.1,247.7z"/>
</g>
</svg>
