<?xml version="1.0" encoding="utf-8"?>
<!-- Generator: Adobe Illustrator 21.0.2, SVG Export Plug-In . SVG Version: 6.00 Build 0)  -->
<svg version="1.1" id="Layer_1" xmlns="http://www.w3.org/2000/svg" xmlns:xlink="http://www.w3.org/1999/xlink" x="0px" y="0px"
	 viewBox="0 0 334.4 328.6" style="enable-background:new 0 0 334.4 328.6;" xml:space="preserve">
<style type="text/css">
	.st0{fill:url(#SVGID_1_);}
	.st1{fill:url(#SVGID_2_);}
	.st2{fill:url(#SVGID_3_);}
	.st3{fill:url(#SVGID_4_);}
</style>
<g>
	<g>
		<g>
			<path d="M131.7,52.1c11.8-0.1,23.6,0,35.5,0c0,36-0.1,72,0,108c-8.4,11-17.1,21.8-25.6,32.9c-12.2-14-20.8-33.6-40.1-38.9
				c-22.6-7.8-49,7.4-54.8,30.3c-6.5,20.9,6.3,44.8,26.6,52.2c16.8,6.6,37.5,1.6,48.7-12.7c21.2-27.1,42.2-54.3,63.4-81.4
				c22.8-27.2,64.6-35.5,96-18.8c26.6,13.2,44.2,42,44.5,71.7c0,27.1,0,54.3,0,81.4c-12.3,0-24.5,0-36.8,0c0-28,0-55.9,0-83.9
				c-0.3-19-15.5-36.1-34.1-39.6c-15.8-3.6-33.7,2.5-43.5,15.5c-20.8,26.5-41.2,53.2-62,79.7c-24.7,30.7-73.3,37.5-105.3,14.3
				c-20.6-13.7-33.7-37.4-35.6-62c-2.3-34.7,20.2-69.5,53.2-81c22.8-8.5,49.5-5.5,69.9,7.7C131.7,102.3,131.7,77.1,131.7,52.1z"/>
			<path d="M325.9,276.6L325.9,276.6c-5.3,0-10.6,0-15.8,0c-6.9,0-14,0-21,0h0v0c0-9.3,0-18.6,0-28c0-18.3,0-37.3,0-55.9
				c-0.3-18.6-15.2-36-34-39.6c-16-3.7-33.8,2.7-43.5,15.5c-10.4,13.2-20.9,26.8-31,39.8c-10.1,13.1-20.6,26.6-31,39.9
				c-6,7.5-13.6,13.7-22.4,18.5c-1.8,1-3.7,1.9-5.6,2.7c10.7-4.8,20.4-11.9,27.9-21.3c10.4-13.3,20.9-26.8,31-39.9
				c10.1-13.1,20.6-26.6,31-39.8c4.8-6.4,11.6-11.2,19.5-14c7.8-2.7,16.3-3.3,24-1.5c9.1,1.7,17.5,6.7,23.9,14
				c6.4,7.4,10.1,16.5,10.2,25.6c0,18.6,0,37.6,0,55.9c0,9.3,0,18.6,0,27.9c7,0,14.1,0,21,0C315.3,276.5,320.6,276.5,325.9,276.6
				c-0.1-20.4-0.1-41.1-0.1-61.1c0-6.8,0-13.6,0-20.3c-0.3-29.8-18.2-58.5-44.5-71.6c-10.8-5.8-23-8.5-35.2-8.5
				c-22.9,0-45.9,9.6-60.7,27.3c-9.7,12.4-19.5,25.1-29,37.3c-11.2,14.5-22.8,29.4-34.3,44.1c-5.4,6.9-13.3,11.9-22.3,14.2
				c-8.9,2.3-18.3,1.7-26.5-1.5c-5-1.8-9.5-4.6-13.6-8.3c-3.9-3.6-7.2-7.9-9.7-12.7c-2.5-4.9-4.1-10-4.7-15.2
				c-0.6-5.5-0.1-10.9,1.4-15.9c2.8-11.2,10.8-21.1,21.7-27c5.1-2.7,10.7-4.5,16.2-5.1c5.9-0.7,11.6,0,17,1.8
				c14.2,3.9,22.7,15.6,30.9,27c2.9,4,6,8.2,9.2,11.9c4.3-5.6,8.7-11.3,13-16.7c4.1-5.2,8.4-10.7,12.5-16.1c0-21.6,0-43.6,0-64.9
				c0-14.1,0-28.7,0-43.1c-2.9,0-5.9,0-8.8,0c-8.7,0-17.7,0-26.6,0c0,9.4,0,19,0,28.2c0,15.4,0,31.4,0,47.1l0,0.1l-0.1,0
				c-20.4-13.1-47.2-16.1-69.9-7.7c-32.7,11.4-55.5,46.2-53.2,80.9c1.9,25.2,15.2,48.4,35.6,61.9c10.6,7.7,23,12.1,35.8,13.5
				c-3.1-0.3-6.2-0.8-9.3-1.5c-9.8-2.2-18.7-6.2-26.5-11.9c-10-6.7-18.6-16-24.8-26.9c-6.1-10.8-9.9-22.9-10.8-35.1
				c-1.1-16.8,3.6-34.3,13.4-49.2c9.8-14.9,23.9-26.2,39.9-31.8c11.2-4.2,23.6-5.6,35.9-4.3c12.2,1.3,24,5.5,34,11.9
				c0-15.7,0-31.6,0-47c0-9.3,0-18.8,0-28.3v0h0c8.9,0,17.9,0,26.6,0c2.9,0,5.9,0,8.8,0h0v0c0,14.4,0,29,0,43.1
				c0,21.3,0,43.3,0,64.9v0l0,0c-4.1,5.4-8.4,10.8-12.5,16.1c-4.3,5.5-8.7,11.1-13,16.8l0,0l0,0c-3.2-3.7-6.3-7.9-9.2-12
				c-8.2-11.3-16.7-23-30.8-26.9c-10.5-3.6-22.5-2.4-33.1,3.3c-10.9,5.9-18.8,15.7-21.7,26.9c-6.3,20.3,6.1,44.7,26.5,52.1
				c17.1,6.7,37.6,1.4,48.6-12.7c11.5-14.7,23.1-29.6,34.3-44.1c9.5-12.2,19.3-24.9,29-37.3c11.1-13.2,27-22.4,44.8-25.9
				c17.9-3.5,36.1-1,51.2,7.1c13,6.5,24.1,16.7,32.1,29.7c3.9,6.3,7,13.1,9.1,20.2c2.1,7.2,3.3,14.5,3.3,21.9c0,6.8,0,13.6,0,20.3
				C326,235.6,326,256.3,325.9,276.6L325.9,276.6z"/>
		</g>
		<g>
			<path d="M169,228c7.9-9.6,15.6-19.4,23.3-29.1c12.8,14.4,22.4,34.7,42.8,39.2c21,5.6,43.9-7.2,51.5-27.3c-0.1,18-0.2,36,0.1,53.9
				c-25.4,16.4-60.4,15.5-85.3-1.7C187.6,254.6,179,240.4,169,228z"/>
			<path d="M245.6,276.6c-0.6,0-1.2,0-1.8,0c-7.6-0.2-15-1.4-22.2-3.6c-7.3-2.3-14.1-5.6-20.2-9.8c-10.7-6.6-18.4-16.8-25.8-26.6
				c-2.1-2.8-4.3-5.7-6.6-8.5l0,0l0,0c6.8-8.2,13.4-16.7,19.9-24.8c1.1-1.4,2.2-2.8,3.3-4.2l0,0l0,0c3.2,3.6,6.3,7.7,9.3,11.7
				c9,11.9,18.2,24.1,33.5,27.5c20.6,5.5,43.7-6.7,51.4-27.2l0.1-0.3l0,0.3c0,2.1,0,4.2,0,6.4c-0.1,15.6-0.1,31.7,0.1,47.6l0,0l0,0
				c-6.2,4-13.2,7.1-20.6,9.1C259.5,275.7,252.6,276.6,245.6,276.6z M169.1,228c2.2,2.8,4.4,5.7,6.5,8.5c7.4,9.8,15.1,20,25.8,26.6
				c24.9,17.2,60,17.9,85.2,1.7c-0.2-15.9-0.2-32-0.1-47.5c0-2,0-4.1,0-6.1c-1.9,4.8-4.6,9.3-8.2,13.3c-3.5,3.9-7.7,7.2-12.4,9.8
				c-9.8,5.3-20.7,6.7-30.8,4c-15.3-3.4-24.6-15.7-33.5-27.5c-3-4-6.1-8-9.3-11.7c-1.1,1.4-2.2,2.8-3.3,4.2
				C182.5,211.3,175.9,219.8,169.1,228z"/>
		</g>
	</g>
	<g>
		<g>
			<linearGradient id="SVGID_1_" gradientUnits="userSpaceOnUse" x1="8.4182" y1="164.3" x2="325.9818" y2="164.3">
				<stop  offset="5.618000e-03" style="stop-color:#401617"/>
				<stop  offset="8.427000e-02" style="stop-color:#6B4C2D"/>
				<stop  offset="0.382" style="stop-color:#A58A55"/>
				<stop  offset="0.5618" style="stop-color:#E5D4B5"/>
				<stop  offset="0.7973" style="stop-color:#987A59"/>
				<stop  offset="0.8034" style="stop-color:#967857"/>
				<stop  offset="0.9551" style="stop-color:#814F2F"/>
			</linearGradient>
			<path class="st0" d="M131.7,52.1c11.8-0.1,23.6,0,35.5,0c0,36-0.1,72,0,108c-8.4,11-17.1,21.8-25.6,32.9
				c-12.2-14-20.8-33.6-40.1-38.9c-22.6-7.8-49,7.4-54.8,30.3c-6.5,20.9,6.3,44.8,26.6,52.2c16.8,6.6,37.5,1.6,48.7-12.7
				c21.2-27.1,42.2-54.3,63.4-81.4c22.8-27.2,64.6-35.5,96-18.8c26.6,13.2,44.2,42,44.5,71.7c0,27.1,0,54.3,0,81.4
				c-12.3,0-24.5,0-36.8,0c0-28,0-55.9,0-83.9c-0.3-19-15.5-36.1-34.1-39.6c-15.8-3.6-33.7,2.5-43.5,15.5
				c-20.8,26.5-41.2,53.2-62,79.7c-24.7,30.7-73.3,37.5-105.3,14.3c-20.6-13.7-33.7-37.4-35.6-62c-2.3-34.7,20.2-69.5,53.2-81
				c22.8-8.5,49.5-5.5,69.9,7.7C131.7,102.3,131.7,77.1,131.7,52.1z"/>
			<linearGradient id="SVGID_2_" gradientUnits="userSpaceOnUse" x1="8.4182" y1="164.3" x2="325.9818" y2="164.3">
				<stop  offset="5.618000e-03" style="stop-color:#401617"/>
				<stop  offset="8.427000e-02" style="stop-color:#6B4C2D"/>
				<stop  offset="0.382" style="stop-color:#A58A55"/>
				<stop  offset="0.5618" style="stop-color:#E5D4B5"/>
				<stop  offset="0.7973" style="stop-color:#987A59"/>
				<stop  offset="0.8034" style="stop-color:#967857"/>
				<stop  offset="0.9551" style="stop-color:#814F2F"/>
			</linearGradient>
			<path class="st1" d="M325.9,276.6L325.9,276.6c-5.3,0-10.6,0-15.8,0c-6.9,0-14,0-21,0h0v0c0-9.3,0-18.6,0-28
				c0-18.3,0-37.3,0-55.9c-0.3-18.6-15.2-36-34-39.6c-16-3.7-33.8,2.7-43.5,15.5c-10.4,13.2-20.9,26.8-31,39.8
				c-10.1,13.1-20.6,26.6-31,39.9c-6,7.5-13.6,13.7-22.4,18.5c-1.8,1-3.7,1.9-5.6,2.7c10.7-4.8,20.4-11.9,27.9-21.3
				c10.4-13.3,20.9-26.8,31-39.9c10.1-13.1,20.6-26.6,31-39.8c4.8-6.4,11.6-11.2,19.5-14c7.8-2.7,16.3-3.3,24-1.5
				c9.1,1.7,17.5,6.7,23.9,14c6.4,7.4,10.1,16.5,10.2,25.6c0,18.6,0,37.6,0,55.9c0,9.3,0,18.6,0,27.9c7,0,14.1,0,21,0
				C315.3,276.5,320.6,276.5,325.9,276.6c-0.1-20.4-0.1-41.1-0.1-61.1c0-6.8,0-13.6,0-20.3c-0.3-29.8-18.2-58.5-44.5-71.6
				c-10.8-5.8-23-8.5-35.2-8.5c-22.9,0-45.9,9.6-60.7,27.3c-9.7,12.4-19.5,25.1-29,37.3c-11.2,14.5-22.8,29.4-34.3,44.1
				c-5.4,6.9-13.3,11.9-22.3,14.2c-8.9,2.3-18.3,1.7-26.5-1.5c-5-1.8-9.5-4.6-13.6-8.3c-3.9-3.6-7.2-7.9-9.7-12.7
				c-2.5-4.9-4.1-10-4.7-15.2c-0.6-5.5-0.1-10.9,1.4-15.9c2.8-11.2,10.8-21.1,21.7-27c5.1-2.7,10.7-4.5,16.2-5.1
				c5.9-0.7,11.6,0,17,1.8c14.2,3.9,22.7,15.6,30.9,27c2.9,4,6,8.2,9.2,11.9c4.3-5.6,8.7-11.3,13-16.7c4.1-5.2,8.4-10.7,12.5-16.1
				c0-21.6,0-43.6,0-64.9c0-14.1,0-28.7,0-43.1c-2.9,0-5.9,0-8.8,0c-8.7,0-17.7,0-26.6,0c0,9.4,0,19,0,28.2c0,15.4,0,31.4,0,47.1
				l0,0.1l-0.1,0c-20.4-13.1-47.2-16.1-69.9-7.7c-32.7,11.4-55.5,46.2-53.2,80.9c1.9,25.2,15.2,48.4,35.6,61.9
				c10.6,7.7,23,12.1,35.8,13.5c-3.1-0.3-6.2-0.8-9.3-1.5c-9.8-2.2-18.7-6.2-26.5-11.9c-10-6.7-18.6-16-24.8-26.9
				c-6.1-10.8-9.9-22.9-10.8-35.1c-1.1-16.8,3.6-34.3,13.4-49.2c9.8-14.9,23.9-26.2,39.9-31.8c11.2-4.2,23.6-5.6,35.9-4.3
				c12.2,1.3,24,5.5,34,11.9c0-15.7,0-31.6,0-47c0-9.3,0-18.8,0-28.3v0h0c8.9,0,17.9,0,26.6,0c2.9,0,5.9,0,8.8,0h0v0
				c0,14.4,0,29,0,43.1c0,21.3,0,43.3,0,64.9v0l0,0c-4.1,5.4-8.4,10.8-12.5,16.1c-4.3,5.5-8.7,11.1-13,16.8l0,0l0,0
				c-3.2-3.7-6.3-7.9-9.2-12c-8.2-11.3-16.7-23-30.8-26.9c-10.5-3.6-22.5-2.4-33.1,3.3c-10.9,5.9-18.8,15.7-21.7,26.9
				c-6.3,20.3,6.1,44.7,26.5,52.1c17.1,6.7,37.6,1.4,48.6-12.7c11.5-14.7,23.1-29.6,34.3-44.1c9.5-12.2,19.3-24.9,29-37.3
				c11.1-13.2,27-22.4,44.8-25.9c17.9-3.5,36.1-1,51.2,7.1c13,6.5,24.1,16.7,32.1,29.7c3.9,6.3,7,13.1,9.1,20.2
				c2.1,7.2,3.3,14.5,3.3,21.9c0,6.8,0,13.6,0,20.3C326,235.6,326,256.3,325.9,276.6L325.9,276.6z"/>
		</g>
		<g>
			<linearGradient id="SVGID_3_" gradientUnits="userSpaceOnUse" x1="8.4182" y1="164.3" x2="325.9818" y2="164.3">
				<stop  offset="5.618000e-03" style="stop-color:#401617"/>
				<stop  offset="8.427000e-02" style="stop-color:#6B4C2D"/>
				<stop  offset="0.382" style="stop-color:#A58A55"/>
				<stop  offset="0.5618" style="stop-color:#E5D4B5"/>
				<stop  offset="0.7973" style="stop-color:#987A59"/>
				<stop  offset="0.8034" style="stop-color:#967857"/>
				<stop  offset="0.9551" style="stop-color:#814F2F"/>
			</linearGradient>
			<path class="st2" d="M169,228c7.9-9.6,15.6-19.4,23.3-29.1c12.8,14.4,22.4,34.7,42.8,39.2c21,5.6,43.9-7.2,51.5-27.3
				c-0.1,18-0.2,36,0.1,53.9c-25.4,16.4-60.4,15.5-85.3-1.7C187.6,254.6,179,240.4,169,228z"/>
			<linearGradient id="SVGID_4_" gradientUnits="userSpaceOnUse" x1="8.4182" y1="164.3" x2="325.9818" y2="164.3">
				<stop  offset="5.618000e-03" style="stop-color:#401617"/>
				<stop  offset="8.427000e-02" style="stop-color:#6B4C2D"/>
				<stop  offset="0.382" style="stop-color:#A58A55"/>
				<stop  offset="0.5618" style="stop-color:#E5D4B5"/>
				<stop  offset="0.7973" style="stop-color:#987A59"/>
				<stop  offset="0.8034" style="stop-color:#967857"/>
				<stop  offset="0.9551" style="stop-color:#814F2F"/>
			</linearGradient>
			<path class="st3" d="M245.6,276.6c-0.6,0-1.2,0-1.8,0c-7.6-0.2-15-1.4-22.2-3.6c-7.3-2.3-14.1-5.6-20.2-9.8
				c-10.7-6.6-18.4-16.8-25.8-26.6c-2.1-2.8-4.3-5.7-6.6-8.5l0,0l0,0c6.8-8.2,13.4-16.7,19.9-24.8c1.1-1.4,2.2-2.8,3.3-4.2l0,0l0,0
				c3.2,3.6,6.3,7.7,9.3,11.7c9,11.9,18.2,24.1,33.5,27.5c20.6,5.5,43.7-6.7,51.4-27.2l0.1-0.3l0,0.3c0,2.1,0,4.2,0,6.4
				c-0.1,15.6-0.1,31.7,0.1,47.6l0,0l0,0c-6.2,4-13.2,7.1-20.6,9.1C259.5,275.7,252.6,276.6,245.6,276.6z M169.1,228
				c2.2,2.8,4.4,5.7,6.5,8.5c7.4,9.8,15.1,20,25.8,26.6c24.9,17.2,60,17.9,85.2,1.7c-0.2-15.9-0.2-32-0.1-47.5c0-2,0-4.1,0-6.1
				c-1.9,4.8-4.6,9.3-8.2,13.3c-3.5,3.9-7.7,7.2-12.4,9.8c-9.8,5.3-20.7,6.7-30.8,4c-15.3-3.4-24.6-15.7-33.5-27.5
				c-3-4-6.1-8-9.3-11.7c-1.1,1.4-2.2,2.8-3.3,4.2C182.5,211.3,175.9,219.8,169.1,228z"/>
		</g>
	</g>
</g>
</svg>
