<?xml version="1.0" encoding="utf-8"?>
<!-- Generator: Adobe Illustrator 21.0.2, SVG Export Plug-In . SVG Version: 6.00 Build 0)  -->
<svg version="1.1" id="Layer_1" xmlns="http://www.w3.org/2000/svg" xmlns:xlink="http://www.w3.org/1999/xlink" x="0px" y="0px"
	 viewBox="0 0 334.4 328.6" style="enable-background:new 0 0 334.4 328.6;" xml:space="preserve">
<style type="text/css">
	.st0{fill:url(#HITCHED_1_);}
	.st1{fill:url(#SVGID_1_);}
	.st2{fill:url(#SVGID_2_);}
</style>
<linearGradient id="HITCHED_1_" gradientUnits="userSpaceOnUse" x1="-0.2" y1="165.603" x2="334.2" y2="165.603" gradientTransform="matrix(1 0 0 -1 0 330)">
	<stop  offset="5.618000e-03" style="stop-color:#401617"/>
	<stop  offset="8.427000e-02" style="stop-color:#6B4C2D"/>
	<stop  offset="0.382" style="stop-color:#A58A55"/>
	<stop  offset="0.5618" style="stop-color:#E5D4B5"/>
	<stop  offset="0.7973" style="stop-color:#987A59"/>
	<stop  offset="0.8034" style="stop-color:#967857"/>
	<stop  offset="0.9551" style="stop-color:#814F2F"/>
</linearGradient>
<path id="HITCHED" class="st0" d="M121.8,325.6c1.8-0.4,2.2-1.5,2.5-2.7l2.2-8.7c0.3-1.3,0.2-1.8-1.1-2.1V312l5.6,1.4v0.1
	c-1.2-0.3-1.6,0-1.9,1.3L127,323C126.5,325.1,124.1,325.7,121.8,325.6L121.8,325.6z M131.6,321.1l1-5.1c0.3-1.3,0.1-2-1.1-2.2v-0.1
	l5.6,1.1v0.1c-1.2-0.2-1.6,0.3-1.9,1.7l-1.1,5.7c-0.3,1.8,0.1,3.2,2.1,3.6c1.8,0.3,3.4-0.5,3.8-2.9l0.5-2.5c0.7-3.7,0.6-4.7-1.4-5.1
	v-0.1l4.7,0.9v0.1c-2-0.4-2.4,0.6-3.1,4.3l-0.5,2.5c-0.5,2.5-2.1,3.6-4.8,3.1C133,325.5,131.1,324,131.6,321.1z M142.4,326.9
	c2.1,0.2,2.4-0.8,2.8-4.6l0.3-3.2c0.2-1.8-0.2-2.8-1.9-3V316l3.9,0.4l5.6,7.7l0.2-2c0.4-3.8,0.3-4.9-1.8-5.1v-0.1l4.7,0.5v0.1
	c-2.1-0.2-2.4,0.8-2.8,4.6l-0.7,6.2h-0.1l-7.1-9.7l-0.4,3.7c-0.4,3.8-0.3,4.9,1.8,5.1v0.1l-4.7-0.5L142.4,326.9z M156.2,328.2
	c1.3,0,1.5-0.3,1.6-1.7l0.2-7.4c0-1.4-0.2-1.8-1.5-1.8v-0.1l9.7,0.3l0.1,3.6h-0.1c-0.4-2.1-1.5-3.6-4.3-3.7h-1.3l-0.2,5.4h0.5
	c2.1,0.1,3-1,3.4-2.5h0.1l-0.2,5.3h-0.1c-0.3-1.5-1.1-2.6-3.2-2.7h-0.5l-0.2,5.4h1.4c2.9,0.1,3.9-1.8,4.5-3.6h0.1l-0.5,3.9l-9.8-0.3
	L156.2,328.2z M173.5,325.6c1.4-2,4.6-3.2,4.5-6.2c-0.1-1.3-0.8-2.3-2.2-2.2c-1.2,0.1-1.8,0.8-2.1,1.5c0.7,0.1,1.2,0.6,1.3,1.3
	c0,0.8-0.5,1.4-1.3,1.5c-0.8,0-1.4-0.6-1.5-1.4c-0.1-1.3,1.3-3,4.2-3.2c2.3-0.1,4.3,0.8,4.4,2.8c0.2,3.2-5.1,3.2-7.2,6.1
	c-0.2,0.3-0.4,0.6-0.5,1c0.3-0.8,1.1-1.4,2.5-1.5c1.5-0.1,2.6,0.5,3.9,0.4c1.1-0.1,1.7-0.6,1.6-1.6c0-0.2-0.1-0.4-0.1-0.7h0.1
	c0.1,0.5,0.3,1.1,0.3,1.8c0.1,1.5-0.3,3.1-1.9,3.2c-2.1,0.1-3.1-2.6-5-2.4c-1,0.1-1.5,0.9-1.4,1.9c0,0.3,0.1,0.5,0.2,0.8h-0.2
	C172.7,327.3,172.8,326.5,173.5,325.6z M183.1,322.3c-0.4-3.3,1-6,4-6.3c3-0.4,5.1,1.8,5.5,5.1c0.4,3.3-1,6-4,6.3
	C185.6,327.8,183.5,325.6,183.1,322.3z M189.9,321.5c-0.3-2.6-1.1-5.6-2.7-5.4c-1.7,0.2-1.6,3.3-1.3,5.9s1,5.6,2.7,5.4
	C190.2,327.1,190.2,324,189.9,321.5z M195.2,326.2c1.3-0.2,1.9-0.7,1.6-2.2l-1.2-6.7c-0.1-0.6-0.3-0.9-1-0.8l-1.2,0.2v-0.1
	c1.5-0.4,3-1,4.3-2.1h0.1l1.7,9.1c0.3,1.5,0.9,1.6,2.1,1.4v0.1l-6.2,1.2L195.2,326.2z M207.2,315.9c0.4-0.7,0.8-1.4,1-2.2h-0.1
	c-0.3,0.9-0.7,1.6-1.8,1.9c-1,0.2-2.4,0.1-3.6,0.4c-1.1,0.3-1.5,0.8-1.3,2.3h-0.2l-1-4.3h0.2l0.8,2.8l0,0c-0.2-1.6-0.3-3.1,1.1-3.4
	c1.7-0.4,3.2,1.5,4.8,1.2c1.1-0.3,1.2-1.5,1.1-2c0-0.2-0.1-0.2-0.1-0.3h0.2c0,0.1,0.1,0.2,0.1,0.3c0.3,1.2-0.3,2.4-0.6,3.7
	c-0.6,2.5-0.8,4.6-0.2,7.6l-2.6,0.6C204.4,321.4,205.8,318.7,207.2,315.9z M68.2,259.6c2.8-3,7-2.5,9.8,0.2c1.2,1.1,2.2,2.6,3.5,3.3
	l-2.5,3.2l-0.1-0.1c1.2-2.8,0.5-4.9-0.8-6.2c-2.2-2.1-5.3-0.7-7.6,1.8c-2.1,2.3-3.4,5.2-1.1,7.3c0.7,0.7,1.5,1,2.4,1.3l2.1-2.3
	c1-1.1,1.2-1.8,0.1-2.8l0.1-0.1l4.6,4.3l-0.1,0.1c-1-0.9-1.5-0.8-2.5,0.3l-2.2,2.4c-1.2-0.6-3.1-1.7-4.5-3.1
	C65.6,265.8,65.8,262.2,68.2,259.6z M78.4,276.7c1.1,0.8,1.6,0.6,2.5-0.6l4.8-6.6c0.9-1.2,0.9-1.8-0.2-2.6l0.1-0.1l8.6,6.2l-2.2,3.4
	h-0.1c0.9-2.2,0.9-4.2-1.6-6l-1.1-0.8l-3.5,4.8l0.4,0.3c1.8,1.3,3.3,0.9,4.6-0.2l0.1,0.1l-3.5,4.8l-0.1-0.1c0.7-1.6,0.6-3.1-1.2-4.4
	l-0.4-0.3l-3.5,4.8l1.3,0.9c2.6,1.9,4.7,0.8,6.4-0.6l0.1,0.1l-2.8,3.3L78.4,276.7L78.4,276.7z M94.1,287.4c1.2,0.7,1.9,0.6,2.8-0.9
	l4.9-8.7l-0.1-0.1c-2.4-1.3-4.2,0-5.9,1.6l-0.1-0.1l2.4-3.7l9.9,5.6l-1.9,4H106c0.5-2.3,0.7-4.5-1.7-5.9l-0.1-0.1l-4.9,8.7
	c-0.8,1.5-0.5,2.1,0.7,2.8l-0.1,0.1l-6-3.4L94.1,287.4z M109.3,295.2c1.3,0.5,2,0.4,2.6-1.2l3.8-9.2l-0.1-0.1
	c-2.5-1-4.1,0.5-5.6,2.3h-0.1l2-4l10.5,4.3l-1.4,4.2h-0.1c0.3-2.3,0.2-4.6-2.3-5.6l-0.1-0.1l-3.8,9.2c-0.7,1.6-0.3,2.2,1,2.7v0.1
	L109.3,295.2L109.3,295.2z M122.6,300.3c1.3,0.4,1.7,0.1,2.2-1.4l2.4-7.9c0.4-1.5,0.3-2-1-2.4v-0.1l6,1.8v0.1
	c-1.3-0.4-1.7-0.1-2.2,1.4l-2.4,7.9c-0.4,1.5-0.3,2,1,2.4v0.1l-6-1.8L122.6,300.3z M133,303.4c2.2,0.4,2.7-0.7,3.5-4.9l0.7-3.6
	c0.4-2,0.1-3.1-1.7-3.5v-0.1l4.2,0.8l5.4,9l0.4-2.2c0.8-4.2,0.8-5.4-1.4-5.8V293l5.1,1v0.1c-2.2-0.4-2.7,0.7-3.5,4.8l-1.3,6.8h-0.1
	l-6.8-11.3l-0.8,4.1c-0.8,4.2-0.8,5.4,1.5,5.8v0.1L133,303.4L133,303.4z M151.6,293.1l2.1,0.2l-0.3,2.4l-1.6,2.3l-0.9-0.1l1.4-2.3
	l-0.9-0.1L151.6,293.1z M165.2,307.4c1.4-0.1,1.7-0.5,1.6-2l-0.3-8.2c-0.1-1.5-0.4-1.9-1.7-1.9v-0.1l6.3-0.2v0.1
	c-1.4,0.1-1.7,0.5-1.6,2l0.2,3.9l5.6-0.2l-0.2-3.9c-0.1-1.5-0.4-1.9-1.7-1.9v-0.1l6.3-0.2v0.1c-1.4,0.1-1.7,0.5-1.6,2l0.3,8.2
	c0.1,1.5,0.4,1.9,1.7,1.9v0.1l-6.3,0.2v-0.1c1.4-0.1,1.7-0.5,1.6-2l-0.2-4.1l-5.6,0.2l0.2,4.1c0.1,1.5,0.4,1.9,1.7,1.9v0.1l-6.3,0.2
	V307.4z M185,306.1c1.4-0.2,1.6-0.7,1.4-2.2l-1.2-8.1c-0.2-1.5-0.6-1.9-1.9-1.7V294l6.2-0.9v0.1c-1.4,0.2-1.6,0.7-1.4,2.2l1.2,8.1
	c0.2,1.5,0.6,1.9,1.9,1.7v0.1l-6.2,0.9V306.1z M198.5,303.8c1.3-0.3,1.8-0.8,1.4-2.5l-2.4-9.7h-0.2c-2.6,0.7-3,2.9-3.1,5.2h-0.1
	l-0.8-4.4l11-2.8l1.4,4.2h-0.1c-1.2-2-2.6-3.8-5.2-3.1h-0.2l2.4,9.7c0.4,1.7,1.1,1.9,2.4,1.6v0.1l-6.7,1.7L198.5,303.8z
	 M210.5,294.3c-1.4-3.7,0.4-7.1,4.3-8.6c1.6-0.6,3-0.7,4.2-1.6l1.8,3.8h-0.1c-2.1-2.3-4-2.9-5.7-2.2c-2.8,1.1-2.7,4.4-1.6,7.3
	c1.1,2.9,3.2,5.5,6,4.5c2.1-0.8,2.9-3.2,3-5.9h0.1l0.8,3.9c-0.8,0.7-2.4,1.5-3.8,2.1C215.1,299.3,211.8,297.7,210.5,294.3z
	 M228.8,293.4c1.2-0.7,1.3-1.2,0.5-2.5l-3.9-7.2c-0.7-1.3-1.2-1.6-2.4-0.9l-0.1-0.1l5.5-3l0.1,0.1c-1.2,0.7-1.3,1.2-0.5,2.5l1.9,3.5
	l5-2.7l-1.9-3.5c-0.7-1.3-1.2-1.6-2.4-0.9l-0.1-0.1l5.5-3l0.1,0.1c-1.2,0.7-1.3,1.2-0.5,2.5l3.9,7.2c0.7,1.3,1.2,1.6,2.4,0.9
	l0.1,0.1l-5.5,3l-0.1-0.1c1.2-0.7,1.3-1.2,0.5-2.5l-2-3.6l-5,2.7l2,3.6c0.7,1.3,1.2,1.6,2.4,0.9l0.1,0.1l-5.5,3L228.8,293.4z
	 M246.1,283.5c1.1-0.8,1.1-1.3,0.2-2.6l-4.8-6.6c-0.9-1.2-1.4-1.4-2.5-0.6l-0.1-0.1l8.6-6.2l2.6,3.1l-0.1,0.1
	c-1.8-1.6-3.7-2.1-6.2-0.4l-1.1,0.8l3.5,4.8l0.4-0.3c1.8-1.3,1.9-2.9,1.2-4.4l0.1-0.1l3.5,4.8l-0.1,0.1c-1.3-1.2-2.8-1.5-4.6-0.2
	l-0.4,0.3l3.5,4.8l1.3-0.9c2.6-1.9,2.2-4.2,1.5-6.2h0.1l2.2,3.7L246.1,283.5L246.1,283.5z M259.4,273.5c1-0.9,0.9-1.5-0.1-2.6
	l-5.6-6c-1-1.1-1.6-1.2-2.6-0.3l-0.1-0.1l4.8-4.5c3.2-3,6.8-3.1,9.4-0.4s2.3,6.4-1,9.4L259.4,273.5L259.4,273.5z M263.9,269.3
	c2.4-2.2,1.2-5.2-0.9-7.4c-2.1-2.2-4.9-3.6-7.3-1.4l-1.2,1.1l8.2,8.8L263.9,269.3z M246.5,93.9h-52.1v1.2c14.7,0,16.2,4.1,16.2,15.4
	v31.8H179v1.2c13.2,0,16.2,2.9,16.1,11.8c-0.2,4.4-1.4,11.6-4.6,19l-36.4-34.9c13.2-4.8,32.1-9.1,32.1-25.5
	c0-12.5-11.3-22.1-30.3-22.1c-19.7,0-34,10.6-34,25.6c0,10.8,7.4,20,13.2,25.5l2.9,2.9c-9,3.5-17.5,7.4-22.7,13.6l-29-66.2h-1.2
	l-29.9,71.5c-6,14.2-11.3,33.7-31.1,33.7v1.2H67v-1.2c-21.2,0-16.2-16.9-10.8-31.1l1.7-4.1h40.5l6,14c6.3,14.7,1,21.2-10.8,21.2v1.2
	h38.8c4.8,1.3,10.1,2.1,15.7,2.1c15.4,0,26.5-5.3,34.4-13l11.5,10.9h0.3h29.9h22.2c36.8,0,60-20.9,60-52.8
	C306.6,114.7,283.1,93.9,246.5,93.9z M58.6,161.4L78,115.1l19.7,46.3H58.6z M137.6,112.2c0-11.1,6.8-19.1,18-19.1
	c11.6,0,16.4,8.5,16.4,19.1c0,14.4-8.5,21.4-18.6,26.5l-3.6-3.6C140.5,126.2,137.6,119.2,137.6,112.2z M153.5,199.3
	c-2.8,0-5.4-0.3-7.7-0.8v-0.2c-0.4,0-0.8,0-1.1,0c-13.9-3.7-17.7-16.2-17.7-26.5c0-13,5.1-20.5,12-25l42.4,40.7
	C175.1,194.2,165.8,199.3,153.5,199.3z M191.7,175.2c2.1-4.3,3.6-9.4,5.3-15.9c2.4-9,3.2-14.3,13.7-15.6v39.2c0,3.9-0.2,7-1.1,9.3
	c-1.5-1.3-3.1-2.8-4.9-4.5L191.7,175.2z M245.5,198.2h-17.8v-103h17.8c29.7,0,42.2,23.1,42.2,51.5S275.3,198.2,245.5,198.2z
	 M27.7,226.2l1.5,3.1l-2.6,2.8l2.8,5.6l3.8-0.4l1.5,3l-16.8,1.5l-1.5-3L27.7,226.2z M24.7,234.2l-4.3,4.5l6.2-0.7L24.7,234.2z
	 M24.3,217.6l-15.1,4.6l-1.4-4.6l9.5-5.8l-11.1,0.4l-1.4-4.6l15.1-4.6l0.9,2.8l-11.9,3.6l12.8-0.6l0.9,2.9l-11,6.6l11.9-3.6
	L24.3,217.6z M15.9,178.5l0.4,3.4l-3.4,1.8l0.8,6.2l3.7,0.8l0.4,3.3l-16.4-4L1,186.7L15.9,178.5z M10.5,185.1L5,188l6.1,1.4
	L10.5,185.1z M15.5,169.2l-15.7-0.4l0.1-3.1l10.7-6.2L0,159.3l0.1-3l15.7,0.4l-0.1,3.2L5.3,166l10.3,0.2L15.5,169.2z M1.4,143l1-5.7
	c0.2-1.3,0.5-2.3,0.8-2.9c0.4-0.9,1-1.6,1.8-2.1s1.7-0.9,2.8-1c1.1-0.2,2.3-0.1,3.8,0.1c1.3,0.2,2.3,0.6,3.2,1.1
	c1.1,0.6,1.9,1.3,2.4,2.2c0.4,0.6,0.7,1.4,0.8,2.4c0.1,0.7,0,1.7-0.2,2.8l-1.1,5.9L1.4,143z M4.6,140.4l10.3,1.8l0.4-2.3
	c0.2-0.9,0.2-1.5,0.2-1.9c0-0.5-0.2-1-0.4-1.4s-0.7-0.8-1.3-1.1c-0.7-0.3-1.6-0.6-2.8-0.8s-2.1-0.3-2.8-0.2
	c-0.7,0.1-1.2,0.3-1.7,0.6c-0.4,0.3-0.8,0.8-1,1.3c-0.2,0.4-0.4,1.3-0.6,2.5L4.6,140.4z M26.5,109.4l-1.1,3.3l-3.8,0.1l-2.1,5.9
	l3,2.4l-1.1,3.2L8.5,113.4l1.1-3.2L26.5,109.4z M18.7,112.9l-6.2,0.1l4.8,3.9L18.7,112.9z M36.8,88.7L23.7,80l2.6-4l10.5,3.6
	l-7.4-8.3l2.6-4L45.1,76l-1.6,2.5l-10.3-6.9l8.6,9.5l-1.7,2.5l-12-4.3l10.3,6.9L36.8,88.7z M52.1,67.8L40.3,57.4l2.1-2.4l11.8,10.4
	L52.1,67.8z M61.7,57.6L51.2,46l2.4-2.1l8.7,9.6l5.9-5.3l1.8,2L61.7,57.6z M77.8,44L69,31.1l2.6-1.8L78.9,40l6.5-4.4l1.5,2.2
	L77.8,44z M95.5,32.8l-6.9-14.2l10.5-5.1l1.2,2.4l-7.6,3.7l1.5,3.1l7.1-3.5l1.2,2.4l-7.1,3.5l1.9,3.9l7.9-3.9l1.2,2.4L95.5,32.8z
	 M115.9,23.7l-4.7-15l6.4-2c1.6-0.5,2.8-0.7,3.6-0.7s1.5,0.3,2.2,0.9s1.1,1.3,1.4,2.2c0.4,1.1,0.3,2.2-0.1,3.1s-1.3,1.7-2.5,2.3
	c0.8,0.2,1.4,0.4,2,0.8s1.4,1,2.5,1.9l2.8,2.4l-3.6,1.1l-3.2-2.6c-1.1-0.9-1.9-1.5-2.3-1.7s-0.8-0.3-1.1-0.3c-0.4,0-0.9,0.1-1.6,0.3
	l-0.6,0.2l2,6.3L115.9,23.7z M116.2,14.1l2.2-0.7c1.5-0.5,2.3-0.8,2.7-1c0.3-0.2,0.5-0.5,0.7-0.9s0.1-0.8,0-1.2
	c-0.2-0.5-0.4-0.9-0.8-1.1c-0.4-0.2-0.8-0.3-1.3-0.2c-0.3,0-1,0.3-2.2,0.6l-2.4,0.7L116.2,14.1z M151.5,12.1c-0.1-2.1,1.9-3.1,4.3-4
	l-0.6-0.5C153.9,6.4,153,5.3,153,4c-0.1-2.3,2.2-3.7,5.3-3.9c3.2-0.1,4.9,1.1,5,2.8c0.1,2.2-2.9,2.9-4.5,3.5l5.1,4.5
	c0.3-0.9,0.5-1.6,0.5-2.2c0.1-1-0.1-1.7-2.4-1.6V6.9l5.5-0.3v0.2c-2.2,0.1-2.3,0.8-2.8,2.3c-0.2,0.7-0.4,1.3-0.6,1.8l2.5,2.1
	c1.2,1.1,1.8,1.4,2.8,1.4v0.2l-5.8,0.3l-1.3-1.2c-1.1,1-2.5,1.6-4.7,1.7C154.1,15.7,151.6,14.4,151.5,12.1z M162.1,13.7l-6.3-5.5
	c-0.6,0.6-1.2,1.7-1.1,3.3c0.1,2.3,1.5,3.8,4,3.7C160.2,15,161.3,14.5,162.1,13.7z M156.2,2.7c0,1.1,0.6,1.8,1.9,3l0.7,0.6
	c1-0.7,1.9-1.8,1.8-3.5c-0.1-1.3-0.7-2.6-2.3-2.5C156.9,0.3,156.2,1.4,156.2,2.7z M196.4,1.7l5.7,1.2c1.3,0.3,2.2,0.6,2.9,0.9
	c0.8,0.5,1.5,1.1,2,1.9s0.8,1.8,0.9,2.8s0,2.3-0.3,3.7c-0.3,1.3-0.7,2.3-1.2,3.2c-0.6,1-1.4,1.8-2.2,2.4c-0.7,0.4-1.5,0.7-2.4,0.8
	c-0.7,0.1-1.7,0-2.8-0.3l-5.8-1.3L196.4,1.7z M198.9,5l-2.2,10.2l2.3,0.5c0.9,0.2,1.5,0.3,1.9,0.3c0.5,0,1-0.1,1.4-0.4
	c0.4-0.2,0.8-0.7,1.1-1.3c0.4-0.6,0.7-1.6,0.9-2.8c0.3-1.2,0.4-2.1,0.3-2.8C204.5,8,204.3,7.5,204,7c-0.3-0.4-0.7-0.8-1.3-1
	c-0.4-0.2-1.3-0.4-2.5-0.7L198.9,5z M229,28l-3.2-1.2V23l-5.9-2.3l-2.5,2.9l-3.1-1.2l11.4-12.5l3.1,1.2L229,28z M225.8,20.1l0.1-6.2
	l-4.1,4.7L225.8,20.1z M237.4,32.1l7.9-13.6l2.7,1.6l0.3,12.3l5.3-9.1l2.6,1.5l-7.9,13.6l-2.8-1.6l-0.3-12.1l-5.1,8.9L237.4,32.1z
	 M268,53.4l11-11.3l2.3,2.2l-4.3,4.4l4.5,4.3l4.3-4.4l2.3,2.2l-11,11.3l-2.3-2.2l4.8-4.9l-4.5-4.3l-4.8,4.9L268,53.4z M284.2,70.3
	l12.5-9.5l7.1,9.3l-2.1,1.6l-5.1-6.8l-2.8,2.1l4.8,6.3l-2.1,1.6l-4.8-6.3l-3.4,2.6l5.3,7l-2.1,1.6L284.2,70.3z M297.1,88.4L311,81
	l2.2,4.2l-8.1,7.6l10.8-2.6l2.2,4.2l-13.9,7.4l-1.4-2.6l10.9-5.8l-12.4,3.1l-1.4-2.7l9.5-8.6L298.5,91L297.1,88.4z M323.4,106.7l2,6
	c0.4,1.2,0.7,2.1,0.7,2.7c0.1,0.6,0.1,1.2-0.1,1.8c-0.2,0.6-0.4,1.1-0.9,1.6c-0.4,0.5-0.9,0.8-1.6,1s-1.4,0.3-2.1,0.1
	c-0.7-0.2-1.3-0.5-1.8-1.1c0,1-0.2,1.9-0.6,2.6c-0.5,0.7-1.1,1.2-2,1.5c-0.7,0.2-1.4,0.3-2.1,0.2c-0.7-0.1-1.4-0.4-2-0.8
	s-1-1-1.4-1.8c-0.2-0.5-0.7-1.7-1.3-3.6l-1.7-5.1L323.4,106.7z M316,112.5l-4,1.4l0.9,2.8c0.4,1.1,0.6,1.8,0.8,2
	c0.2,0.4,0.6,0.7,1,0.9c0.4,0.2,0.9,0.2,1.4,0c0.4-0.2,0.8-0.4,1-0.7c0.2-0.3,0.4-0.7,0.4-1.2s-0.2-1.4-0.7-2.7L316,112.5z
	 M321.9,110.5l-3.4,1.2l0.7,2c0.4,1.2,0.7,1.9,0.8,2.2c0.2,0.5,0.6,0.8,0.9,1c0.4,0.2,0.8,0.2,1.3,0s0.8-0.4,1-0.8s0.2-0.8,0.1-1.3
	c-0.1-0.3-0.3-1.2-0.8-2.6L321.9,110.5z M315.2,134.2l15.5-2.7l2,11.5l-2.6,0.5l-1.5-8.4l-3.4,0.6l1.4,7.8L324,144l-1.4-7.8
	l-4.2,0.7l1.5,8.7l-2.6,0.5L315.2,134.2z M318.3,156.3l15.7-0.5l0.2,6.7c0,1.7-0.1,2.9-0.3,3.7c-0.3,0.8-0.7,1.4-1.5,1.9
	c-0.7,0.5-1.5,0.7-2.5,0.8c-1.2,0-2.2-0.3-3-1s-1.3-1.7-1.5-3.1c-0.4,0.7-0.8,1.3-1.3,1.7s-1.3,1.1-2.5,1.9l-3,2l-0.1-3.8l3.4-2.4
	c1.2-0.9,2-1.4,2.3-1.7s0.5-0.6,0.6-1c0.1-0.3,0.2-0.9,0.1-1.6v-0.6l-6.6,0.2L318.3,156.3z M327.4,159.2l0.1,2.4
	c0,1.5,0.1,2.5,0.3,2.8c0.1,0.4,0.4,0.7,0.7,0.9c0.3,0.2,0.7,0.3,1.2,0.3s1-0.2,1.3-0.5s0.5-0.7,0.6-1.2c0-0.3,0-1,0-2.3l-0.1-2.5
	L327.4,159.2z M322.9,187.7l2.6,0.4l-0.9,6.8l-6.2-0.8c-0.6-0.7-1-1.8-1.3-3.1s-0.4-2.6-0.2-3.9c0.2-1.6,0.8-3,1.6-4.1
	c0.8-1.1,1.9-1.9,3.3-2.3c1.4-0.4,2.8-0.6,4.3-0.4c1.6,0.2,3,0.8,4.2,1.6s2,2,2.5,3.4c0.4,1.1,0.5,2.4,0.3,3.8
	c-0.3,1.9-0.9,3.4-1.8,4.4c-1,1-2.2,1.5-3.7,1.7l-0.2-3.2c0.8-0.1,1.5-0.5,2-1s0.8-1.3,1-2.2c0.2-1.4-0.1-2.5-0.9-3.5
	c-0.8-0.9-2-1.5-3.7-1.7c-1.9-0.2-3.3,0-4.3,0.7s-1.6,1.7-1.8,3.1c-0.1,0.7,0,1.3,0.1,2s0.4,1.3,0.7,1.8l2,0.3L322.9,187.7z
	 M313.9,204l15.1,4.5l-3.3,11.2l-2.6-0.8l2.4-8.1l-3.3-1l-2.2,7.6l-2.5-0.8l2.2-7.6l-4.1-1.2l-2.5,8.4l-2.5-0.8L313.9,204z
	 M306.8,225.1l14.2,6.7l-2.9,6.1c-0.7,1.5-1.4,2.6-1.9,3.1c-0.6,0.6-1.3,0.9-2.1,1s-1.7,0-2.5-0.4c-1.1-0.5-1.8-1.2-2.2-2.2
	c-0.4-1-0.4-2.1,0-3.4c-0.7,0.5-1.3,0.8-1.9,1s-1.7,0.4-3.1,0.5l-3.6,0.4l1.6-3.4l4.1-0.6c1.5-0.2,2.4-0.4,2.8-0.5s0.8-0.3,1-0.6
	c0.3-0.3,0.5-0.7,0.8-1.4l0.3-0.6l-5.9-2.8L306.8,225.1z M313.7,231.9l-1,2.1c-0.7,1.4-1,2.3-1,2.7s0,0.8,0.2,1.1s0.5,0.6,0.9,0.8
	c0.5,0.2,0.9,0.3,1.3,0.2s0.8-0.4,1.1-0.8c0.1-0.2,0.5-0.9,1-2.1l1.1-2.2L313.7,231.9z"/>
<g id="Layer_2">
	
		<linearGradient id="SVGID_1_" gradientUnits="userSpaceOnUse" x1="215.2" y1="743.8" x2="302.3" y2="743.8" gradientTransform="matrix(1 0 0 1 0 -462)">
		<stop  offset="5.618000e-03" style="stop-color:#401617"/>
		<stop  offset="8.427000e-02" style="stop-color:#6C4D2E"/>
		<stop  offset="0.382" style="stop-color:#A68A55"/>
		<stop  offset="0.5618" style="stop-color:#E5D5B6"/>
		<stop  offset="0.7973" style="stop-color:#997B5A"/>
		<stop  offset="0.8034" style="stop-color:#967958"/>
		<stop  offset="0.9551" style="stop-color:#825030"/>
	</linearGradient>
	<path class="st1" d="M301.4,247.7c0.3,0.1,0.6,0.3,0.9,0.4c-19.8,31.9-50.5,56.2-86.9,67.8c-0.1-0.3-0.2-0.6-0.2-1
		C251.3,303.4,281.8,279.3,301.4,247.7z"/>
	
		<linearGradient id="SVGID_2_" gradientUnits="userSpaceOnUse" x1="32.2" y1="743.8" x2="119.3" y2="743.8" gradientTransform="matrix(1 0 0 1 0 -462)">
		<stop  offset="5.618000e-03" style="stop-color:#401617"/>
		<stop  offset="8.427000e-02" style="stop-color:#6C4D2E"/>
		<stop  offset="0.382" style="stop-color:#A68A55"/>
		<stop  offset="0.5618" style="stop-color:#E5D5B6"/>
		<stop  offset="0.7973" style="stop-color:#997B5A"/>
		<stop  offset="0.8034" style="stop-color:#967958"/>
		<stop  offset="0.9551" style="stop-color:#825030"/>
	</linearGradient>
	<path class="st2" d="M33.1,247.7c-0.3,0.1-0.6,0.3-0.9,0.4c19.8,31.9,50.5,56.2,86.9,67.8c0.1-0.3,0.2-0.6,0.2-1
		C83.3,303.4,52.8,279.3,33.1,247.7z"/>
</g>
</svg>
