<?xml version="1.0" encoding="utf-8"?>
<!-- Generator: Adobe Illustrator 21.0.2, SVG Export Plug-In . SVG Version: 6.00 Build 0)  -->
<svg version="1.1" id="Layer_1" xmlns="http://www.w3.org/2000/svg" xmlns:xlink="http://www.w3.org/1999/xlink" x="0px" y="0px"
	 viewBox="0 0 334.4 328.6" style="enable-background:new 0 0 334.4 328.6;" xml:space="preserve">
<style type="text/css">
	.st0{fill:url(#SVGID_1_);}
	.st1{fill:url(#SVGID_2_);}
	.st2{fill:url(#SVGID_3_);}
</style>
<g>
	<g>
		<path d="M98.5,216.7l-0.3,0c-0.5,0.1-0.9,0.1-1.4,0.2l-0.3,0c-0.5,0.1-1,0.1-1.5,0.1l-0.1,0c-6.2,0.4-12.4-0.5-18-2.7
			c-3.7-1.3-7.2-3.3-10.4-5.7c-8.9-6.7-15-16.8-16.7-27.8l-0.1-1c-0.1-0.4-0.1-0.7-0.1-1.1c-0.6-5.4-0.1-10.7,1.4-15.7
			c2.8-11,10.5-20.6,21.3-26.4c5-2.7,10.4-4.4,15.8-5c5.8-0.6,11.4,0,16.7,1.8c13.8,3.8,22.1,15.2,30,26.2c2.5,3.5,5.2,7.1,7.9,10.4
			c4-5.2,8.1-10.4,11.7-15l0.1-0.1c3.8-4.9,7.8-10,11.7-15c0-20.8,0-41.6,0-61.8c0-13.2,0-26.8,0-40.2l-7.6,0c-7.9,0-16.1,0-24.2,0
			c0,8.7,0,17.5,0,26c0,14.7,0,30,0,45l0,1.7l0,0l0,0.1l-1.5-0.9c-19.4-12.5-44.7-15.3-66.1-7.3c-30.9,10.8-52.5,43.6-50.2,76.4
			c0.3,4.6,1.1,9.3,2.3,13.8c3.6,13.7,11.1,26.7,21,36.4c3.2,3.1,6.7,5.9,10.3,8.3c9.7,7,21.4,11.4,33.8,12.7l0.5,0.1l0,0
			c13.1,1.3,26.3-0.8,38.3-6l0,0l0.5-0.2c10.4-4.6,19.5-11.6,26.3-20.1c9.7-12.4,19.5-25,29-37.3l1-1.2
			c9.6-12.4,19.5-25.1,29.4-37.8c4.7-6.2,11.3-11,19.1-13.8c7.6-2.7,16-3.2,23.6-1.5c8.9,1.7,17.2,6.6,23.4,13.7
			c6.3,7.3,9.9,16.2,10,25.2c0,16.5,0,33.2,0,49.5l0,29.8c6,0,12.1,0,18,0h1c4.6,0,9.3,0,14,0c0-18.7,0-37.8,0-56.2l0-20.6
			c-0.3-28.1-17.2-55.3-42-67.6c-9.9-5.3-21.4-8.1-33.3-8.1c-22.4,0-43.8,9.6-57.4,25.8c-9.2,11.8-18.6,23.9-27.7,35.6l-0.1,0.1
			c-10.1,13.1-21.6,27.9-32.9,42.2c-5.3,6.7-13.1,11.7-21.9,13.9c-0.9,0.2-1.9,0.4-2.9,0.6l-0.1,0C99.4,216.5,98.9,216.6,98.5,216.7
			z"/>
		<polygon points="99.9,215.9 99.9,215.9 99.9,215.9 		"/>
		<path d="M280.4,195l0-1.3c-1.6,3.1-3.7,6-6.1,8.7c-3.5,3.9-7.6,7.1-12.2,9.5c-9.6,5.2-20.3,6.6-30.2,3.9
			c-14.9-3.3-23.9-15.2-32.6-26.7c-2.6-3.4-5.3-7-8.1-10.2l-2.6,3.3c-6,7.6-12.1,15.4-18.4,22.9c2,2.5,4,5.1,5.7,7.5
			c7.1,9.4,14.3,19,24.4,25.2c23.4,16.2,56.3,16.9,80,2C280.3,224.8,280.4,209.7,280.4,195z"/>
	</g>
	<g>
		<linearGradient id="SVGID_1_" gradientUnits="userSpaceOnUse" x1="16.3179" y1="144.3014" x2="318.0826" y2="144.3014">
			<stop  offset="5.618000e-03" style="stop-color:#401617"/>
			<stop  offset="8.427000e-02" style="stop-color:#6B4C2D"/>
			<stop  offset="0.382" style="stop-color:#A58A55"/>
			<stop  offset="0.5618" style="stop-color:#E5D4B5"/>
			<stop  offset="0.7973" style="stop-color:#987A59"/>
			<stop  offset="0.8034" style="stop-color:#967857"/>
			<stop  offset="0.9551" style="stop-color:#814F2F"/>
		</linearGradient>
		<path class="st0" d="M98.5,216.7l-0.3,0c-0.5,0.1-0.9,0.1-1.4,0.2l-0.3,0c-0.5,0.1-1,0.1-1.5,0.1l-0.1,0c-6.2,0.4-12.4-0.5-18-2.7
			c-3.7-1.3-7.2-3.3-10.4-5.7c-8.9-6.7-15-16.8-16.7-27.8l-0.1-1c-0.1-0.4-0.1-0.7-0.1-1.1c-0.6-5.4-0.1-10.7,1.4-15.7
			c2.8-11,10.5-20.6,21.3-26.4c5-2.7,10.4-4.4,15.8-5c5.8-0.6,11.4,0,16.7,1.8c13.8,3.8,22.1,15.2,30,26.2c2.5,3.5,5.2,7.1,7.9,10.4
			c4-5.2,8.1-10.4,11.7-15l0.1-0.1c3.8-4.9,7.8-10,11.7-15c0-20.8,0-41.6,0-61.8c0-13.2,0-26.8,0-40.2l-7.6,0c-7.9,0-16.1,0-24.2,0
			c0,8.7,0,17.5,0,26c0,14.7,0,30,0,45l0,1.7l0,0l0,0.1l-1.5-0.9c-19.4-12.5-44.7-15.3-66.1-7.3c-30.9,10.8-52.5,43.6-50.2,76.4
			c0.3,4.6,1.1,9.3,2.3,13.8c3.6,13.7,11.1,26.7,21,36.4c3.2,3.1,6.7,5.9,10.3,8.3c9.7,7,21.4,11.4,33.8,12.7l0.5,0.1l0,0
			c13.1,1.3,26.3-0.8,38.3-6l0,0l0.5-0.2c10.4-4.6,19.5-11.6,26.3-20.1c9.7-12.4,19.5-25,29-37.3l1-1.2
			c9.6-12.4,19.5-25.1,29.4-37.8c4.7-6.2,11.3-11,19.1-13.8c7.6-2.7,16-3.2,23.6-1.5c8.9,1.7,17.2,6.6,23.4,13.7
			c6.3,7.3,9.9,16.2,10,25.2c0,16.5,0,33.2,0,49.5l0,29.8c6,0,12.1,0,18,0h1c4.6,0,9.3,0,14,0c0-18.7,0-37.8,0-56.2l0-20.6
			c-0.3-28.1-17.2-55.3-42-67.6c-9.9-5.3-21.4-8.1-33.3-8.1c-22.4,0-43.8,9.6-57.4,25.8c-9.2,11.8-18.6,23.9-27.7,35.6l-0.1,0.1
			c-10.1,13.1-21.6,27.9-32.9,42.2c-5.3,6.7-13.1,11.7-21.9,13.9c-0.9,0.2-1.9,0.4-2.9,0.6l-0.1,0C99.4,216.5,98.9,216.6,98.5,216.7
			z"/>
		<linearGradient id="SVGID_2_" gradientUnits="userSpaceOnUse" x1="16.3179" y1="144.3014" x2="318.0826" y2="144.3014">
			<stop  offset="5.618000e-03" style="stop-color:#401617"/>
			<stop  offset="8.427000e-02" style="stop-color:#6B4C2D"/>
			<stop  offset="0.382" style="stop-color:#A58A55"/>
			<stop  offset="0.5618" style="stop-color:#E5D4B5"/>
			<stop  offset="0.7973" style="stop-color:#987A59"/>
			<stop  offset="0.8034" style="stop-color:#967857"/>
			<stop  offset="0.9551" style="stop-color:#814F2F"/>
		</linearGradient>
		<polygon class="st1" points="99.9,215.9 99.9,215.9 99.9,215.9 		"/>
		<linearGradient id="SVGID_3_" gradientUnits="userSpaceOnUse" x1="16.3179" y1="144.3014" x2="318.0826" y2="144.3014">
			<stop  offset="5.618000e-03" style="stop-color:#401617"/>
			<stop  offset="8.427000e-02" style="stop-color:#6B4C2D"/>
			<stop  offset="0.382" style="stop-color:#A58A55"/>
			<stop  offset="0.5618" style="stop-color:#E5D4B5"/>
			<stop  offset="0.7973" style="stop-color:#987A59"/>
			<stop  offset="0.8034" style="stop-color:#967857"/>
			<stop  offset="0.9551" style="stop-color:#814F2F"/>
		</linearGradient>
		<path class="st2" d="M280.4,195l0-1.3c-1.6,3.1-3.7,6-6.1,8.7c-3.5,3.9-7.6,7.1-12.2,9.5c-9.6,5.2-20.3,6.6-30.2,3.9
			c-14.9-3.3-23.9-15.2-32.6-26.7c-2.6-3.4-5.3-7-8.1-10.2l-2.6,3.3c-6,7.6-12.1,15.4-18.4,22.9c2,2.5,4,5.1,5.7,7.5
			c7.1,9.4,14.3,19,24.4,25.2c23.4,16.2,56.3,16.9,80,2C280.3,224.8,280.4,209.7,280.4,195z"/>
	</g>
</g>
</svg>
